# xmcd
#
# Track frame offsets:
#	150
#	12390
#	27878
#	40389
#	55005
#	69677
#	81397
#	94479
#	109156
#	122321
#	137916
#	153667
#	171410
#	184264
#	206326
#	219081
#
# Disc length: 3130 seconds
#
# Revision: 1
# Processed by: cddbd v1.5.2PL0 Copyright (c) Steve Scherf et al.
# Submitted via: audiograbber 1.83.01
#
DISCID=e30c3810
DTITLE=Haggard, Merle Greatest Hits Disc 3 - CB5049d3
DYEAR=2005
DGENRE=Karaoke
TTITLE0=Today I Started Loving You Again
TTITLE1=Silver Wings
TTITLE2=Every Fool Has A Rainbow
TTITLE3=That's The Way Love Goes
TTITLE4=Farmer's Daughter
TTITLE5=Old Man From The Mountain
TTITLE6=Let's Chase Each Other Around The Room
TTITLE7=Natural High
TTITLE8=You Take Me For Granted
TTITLE9=Someday When Things Are Good
TTITLE10=Twinkle Twinkle Lucky Star
TTITLE11=We Never Touch At All
TTITLE12=A Better Love Next Time
TTITLE13=Motorcycle Cowboy
TTITLE14=Think About A Lullaby
TTITLE15=When It Rains It Pours
EXTD=
EXTT0=
EXTT1=
EXTT2=
EXTT3=
EXTT4=
EXTT5=
EXTT6=
EXTT7=
EXTT8=
EXTT9=
EXTT10=
EXTT11=
EXTT12=
EXTT13=
EXTT14=
EXTT15=
PLAYORDER=
